#Comment line ignore any data following # character 
#Hierarchical Translation and Rotation (.htr) file 
[Header]	
#Header keywords are followed by a single value 
FileType HTR		#Single word string
DataType HTRS		#Translation followed by rotation and scale data
FileVersion 1		#integer
NumSegments 64		#integer
NumFrames 3		#integer
DataFrameRate 30		#integer, data frame rate in this file
EulerRotationOrder ZYX
CalibrationUnits mm
RotationUnits Degrees
GlobalAxisofGravity Y
BoneLengthAxis Y
ScaleFactor 1.00
[SegmentNames&Hierarchy]
#CHILD	PARENT
Pinger_Root GLOBAL
Pelvis Pinger_Root
L_Hip Pelvis
R_Hip Pelvis
Rear_Leg01 Pelvis
Spine1 Pelvis
L_Leg01 L_Hip
L_Leg02 L_Leg01
L_Leg03 L_Leg02
L_Foot L_Leg03
L_Toe1_01 L_Foot
L_Toe2_01 L_Foot
L_Toe3_01 L_Foot
planeAlignerLeft L_Foot
L_Toe1_02 L_Toe1_01
L_Toe1_03 L_Toe1_02
L_Toe2_02 L_Toe2_01
L_Toe2_03 L_Toe2_02
L_Toe3_02 L_Toe3_01
L_Toe3_03 L_Toe3_02
planeLockWeightLeft planeAlignerLeft
R_Leg01 R_Hip
R_Leg02 R_Leg01
R_Leg03 R_Leg02
R_Foot R_Leg03
planeAlignerRight R_Foot
R_Toe1_01 R_Foot
R_Toe2_01 R_Foot
R_Toe3_01 R_Foot
planeLockWeightRight planeAlignerRight
R_Toe1_02 R_Toe1_01
R_Toe1_03 R_Toe1_02
R_Toe2_02 R_Toe2_01
R_Toe2_03 R_Toe2_02
R_Toe3_02 R_Toe3_01
R_Toe3_03 R_Toe3_02
Rear_Leg02 Rear_Leg01
Rear_Leg03 Rear_Leg02
Rear_Leg04 Rear_Leg03
Rear_Foot Rear_Leg04
planeAlignerCenter Rear_Foot
Rear_Toe1_01 Rear_Foot
Rear_Toe2_01 Rear_Foot
Rear_Toe3_01 Rear_Foot
planeLockWeightCenter planeAlignerCenter
Rear_Toe1_02 Rear_Toe1_01
Rear_Toe1_03 Rear_Toe1_02
Rear_Toe2_02 Rear_Toe2_01
Rear_Toe2_03 Rear_Toe2_02
Rear_Toe3_02 Rear_Toe3_01
Rear_Toe3_03 Rear_Toe3_02
Back_Bone Spine1
Head Spine1
Motor_Bone Back_Bone
Ping_Mechanism Back_Bone
BN_LookIK Head
bottomMouth Head
L_Mouth01 Head
L_mouthFront Head
mouthGun Head
R_Mouth01 Head
R_mouthFront Head
TopMouth Head
weapon_bone Head
[BasePosition]
#SegmentName Tx, Ty, Tz, Rx, Ry, Rz, BoneLength
Pinger_Root 0.000000 0.000000 0.000000 -90.000000 0.000000 0.000000 10.000000 
Pelvis 0.000000 0.000000 0.000000 0.000000 0.000000 0.000000 10.000000 
L_Hip 0.000000 0.000000 0.000000 0.000000 0.000000 0.000000 10.000000 
R_Hip 0.000000 0.000000 0.000000 0.000000 0.000000 0.000000 10.000000 
Rear_Leg01 0.000000 0.000000 0.000000 0.000000 0.000000 0.000000 10.000000 
Spine1 0.000000 0.000000 0.000000 0.000000 0.000000 0.000000 10.000000 
L_Leg01 0.000000 0.000000 0.000000 0.000000 0.000000 0.000000 10.000000 
L_Leg02 0.000000 0.000000 0.000000 0.000000 0.000000 0.000000 10.000000 
L_Leg03 0.000000 0.000000 0.000000 0.000000 0.000000 0.000000 10.000000 
L_Foot 0.000000 0.000000 0.000000 0.000000 0.000000 0.000000 10.000000 
L_Toe1_01 0.000000 0.000000 0.000000 0.000000 0.000000 0.000000 10.000000 
L_Toe2_01 0.000000 0.000000 0.000000 0.000000 0.000000 0.000000 10.000000 
L_Toe3_01 0.000000 0.000000 0.000000 0.000000 0.000000 0.000000 10.000000 
planeAlignerLeft 0.000000 0.000000 0.000000 0.000000 0.000000 0.000000 10.000000 
L_Toe1_02 0.000000 0.000000 0.000000 0.000000 0.000000 0.000000 10.000000 
L_Toe1_03 0.000000 0.000000 0.000000 0.000000 0.000000 0.000000 10.000000 
L_Toe2_02 0.000000 0.000000 0.000000 0.000000 0.000000 0.000000 10.000000 
L_Toe2_03 0.000000 0.000000 0.000000 0.000000 0.000000 0.000000 10.000000 
L_Toe3_02 0.000000 0.000000 0.000000 0.000000 0.000000 0.000000 10.000000 
L_Toe3_03 0.000000 0.000000 0.000000 0.000000 0.000000 0.000000 10.000000 
planeLockWeightLeft 0.000000 0.000000 0.000000 0.000000 0.000000 0.000000 10.000000 
R_Leg01 0.000000 0.000000 0.000000 0.000000 0.000000 0.000000 10.000000 
R_Leg02 0.000000 0.000000 0.000000 0.000000 0.000000 0.000000 10.000000 
R_Leg03 0.000000 0.000000 0.000000 0.000000 0.000000 0.000000 10.000000 
R_Foot 0.000000 0.000000 0.000000 0.000000 0.000000 0.000000 10.000000 
planeAlignerRight 0.000000 0.000000 0.000000 0.000000 0.000000 0.000000 10.000000 
R_Toe1_01 0.000000 0.000000 0.000000 0.000000 0.000000 0.000000 10.000000 
R_Toe2_01 0.000000 0.000000 0.000000 0.000000 0.000000 0.000000 10.000000 
R_Toe3_01 0.000000 0.000000 0.000000 0.000000 0.000000 0.000000 10.000000 
planeLockWeightRight 0.000000 0.000000 0.000000 0.000000 0.000000 0.000000 10.000000 
R_Toe1_02 0.000000 0.000000 0.000000 0.000000 0.000000 0.000000 10.000000 
R_Toe1_03 0.000000 0.000000 0.000000 0.000000 0.000000 0.000000 10.000000 
R_Toe2_02 0.000000 0.000000 0.000000 0.000000 0.000000 0.000000 10.000000 
R_Toe2_03 0.000000 0.000000 0.000000 0.000000 0.000000 0.000000 10.000000 
R_Toe3_02 0.000000 0.000000 0.000000 0.000000 0.000000 0.000000 10.000000 
R_Toe3_03 0.000000 0.000000 0.000000 0.000000 0.000000 0.000000 10.000000 
Rear_Leg02 0.000000 0.000000 0.000000 0.000000 0.000000 0.000000 10.000000 
Rear_Leg03 0.000000 0.000000 0.000000 0.000000 0.000000 0.000000 10.000000 
Rear_Leg04 0.000000 0.000000 0.000000 0.000000 0.000000 0.000000 10.000000 
Rear_Foot 0.000000 0.000000 0.000000 0.000000 0.000000 0.000000 10.000000 
planeAlignerCenter 0.000000 0.000000 0.000000 0.000000 0.000000 0.000000 10.000000 
Rear_Toe1_01 0.000000 0.000000 0.000000 0.000000 0.000000 0.000000 10.000000 
Rear_Toe2_01 0.000000 0.000000 0.000000 0.000000 0.000000 0.000000 10.000000 
Rear_Toe3_01 0.000000 0.000000 0.000000 0.000000 0.000000 0.000000 10.000000 
planeLockWeightCenter 0.000000 0.000000 0.000000 0.000000 0.000000 0.000000 10.000000 
Rear_Toe1_02 0.000000 0.000000 0.000000 0.000000 0.000000 0.000000 10.000000 
Rear_Toe1_03 0.000000 0.000000 0.000000 0.000000 0.000000 0.000000 10.000000 
Rear_Toe2_02 0.000000 0.000000 0.000000 0.000000 0.000000 0.000000 10.000000 
Rear_Toe2_03 0.000000 0.000000 0.000000 0.000000 0.000000 0.000000 10.000000 
Rear_Toe3_02 0.000000 0.000000 0.000000 0.000000 0.000000 0.000000 10.000000 
Rear_Toe3_03 0.000000 0.000000 0.000000 0.000000 0.000000 0.000000 10.000000 
Back_Bone 0.000000 0.000000 0.000000 0.000000 0.000000 0.000000 10.000000 
Head 0.000000 0.000000 0.000000 0.000000 0.000000 0.000000 10.000000 
Motor_Bone 0.000000 0.000000 0.000000 0.000000 0.000000 0.000000 10.000000 
Ping_Mechanism 0.000000 0.000000 0.000000 0.000000 0.000000 0.000000 10.000000 
BN_LookIK 0.000000 0.000000 0.000000 0.000000 0.000000 0.000000 10.000000 
bottomMouth 0.000000 0.000000 0.000000 0.000000 0.000000 0.000000 10.000000 
L_Mouth01 0.000000 0.000000 0.000000 0.000000 0.000000 0.000000 10.000000 
L_mouthFront 0.000000 0.000000 0.000000 0.000000 0.000000 0.000000 10.000000 
mouthGun 0.000000 0.000000 0.000000 0.000000 0.000000 0.000000 10.000000 
R_Mouth01 0.000000 0.000000 0.000000 0.000000 0.000000 0.000000 10.000000 
R_mouthFront 0.000000 0.000000 0.000000 0.000000 0.000000 0.000000 10.000000 
TopMouth 0.000000 0.000000 0.000000 0.000000 0.000000 0.000000 10.000000 
weapon_bone 0.000000 0.000000 0.000000 0.000000 0.000000 0.000000 10.000000 
#Beginning of Data. Separated by tabs
#Fr	Tx	Ty	Tz	Rx	Ry	Rz	SF
[Pinger_Root]
84 0.000000 0.000000 0.000000 -0.000075 -0.000000 -0.000020 0.000000
85 0.000000 0.000000 0.000000 -0.000075 -0.000000 -0.000020 0.000000
86 0.000000 0.000000 0.000000 -0.000075 -0.000000 -0.000020 0.000000
[Pelvis]
84 5.006097 1002.308472 3653.629150 -89.998245 -82.710503 89.986458 3788.621582
85 5.076816 1002.308472 3653.478760 -90.000809 -82.714012 89.987404 3788.476807
86 5.147536 1002.308472 3653.328857 -90.003342 -82.717537 89.988312 3788.332275
[L_Hip]
84 5.766392 125.831482 872.656799 -121.855164 -74.309326 30.031721 881.701050
85 5.766392 125.831482 872.656799 -121.855164 -74.309326 30.031721 881.701050
86 5.766392 125.831482 872.656799 -121.855164 -74.309326 30.031721 881.701050
[R_Hip]
84 5.765438 125.836372 -872.654907 -62.006908 72.295975 26.002958 881.699829
85 5.765438 125.836372 -872.654907 -62.006908 72.295975 26.002958 881.699829
86 5.765438 125.836372 -872.654907 -62.006908 72.295975 26.002958 881.699829
[Rear_Leg01]
84 -192.298416 -925.602966 -0.001907 176.264771 -1.863649 -124.932976 945.367432
85 -192.298416 -925.602966 -0.001907 176.263000 -1.862958 -124.933571 945.367432
86 -192.298416 -925.602966 -0.001907 176.261230 -1.862268 -124.934204 945.367432
[Spine1]
84 290.604584 5.007505 0.000477 0.012424 -0.000068 15.981188 290.647736
85 290.604584 5.007505 0.000477 0.013743 -0.000253 15.984642 290.647736
86 290.604584 5.007505 0.000477 0.015061 -0.000439 15.988102 290.647736
[L_Leg01]
84 761.932007 -0.002384 -0.069261 73.217735 -37.907204 -74.316238 761.932068
85 761.932007 -0.002384 -0.069261 73.215370 -37.912010 -74.311356 761.932068
86 761.932007 -0.002384 -0.069261 73.212997 -37.916817 -74.306465 761.932068
[L_Leg02]
84 1441.140503 -0.000954 -0.000715 3.690661 0.371718 -110.007484 1441.140503
85 1441.140503 -0.000954 -0.000715 3.691535 0.372138 -110.015587 1441.140503
86 1441.140503 -0.000954 -0.000715 3.692408 0.372558 -110.023705 1441.140503
[L_Leg03]
84 1686.963989 -0.000715 -0.000954 -0.070588 0.037868 129.690872 1686.963989
85 1686.963989 -0.000715 -0.000954 -0.070664 0.038038 129.697342 1686.963989
86 1686.963989 -0.000715 -0.000954 -0.070740 0.038208 129.703812 1686.963989
[L_Foot]
84 3041.570068 -30.715107 11.297464 1.833072 24.662853 38.956955 3041.746094
85 3041.570068 -30.715107 11.297464 1.831475 24.662397 38.960682 3041.746094
86 3041.570068 -30.715107 11.297464 1.829880 24.661947 38.964409 3041.746094
[L_Toe1_01]
84 -188.216690 -224.732346 -21.137953 94.536530 -11.874325 -178.539001 293.899567
85 -188.216690 -224.732346 -21.137953 94.536530 -11.874324 -178.539001 293.899567
86 -188.216690 -224.732346 -21.137953 94.536530 -11.874324 -178.539001 293.899567
[L_Toe2_01]
84 200.746536 -219.926590 148.838394 -89.381096 -33.867207 -48.474640 332.896027
85 200.746536 -219.926590 148.838394 -89.381714 -33.867321 -48.473980 332.896027
86 200.746536 -219.926590 148.838394 -89.382347 -33.867439 -48.473324 332.896027
[L_Toe3_01]
84 188.832520 -219.859131 -191.078659 -97.053093 10.776752 -57.818794 347.140900
85 188.832520 -219.859131 -191.078659 -97.052780 10.776650 -57.818069 347.140900
86 188.832520 -219.859131 -191.078659 -97.052467 10.776543 -57.817333 347.140900
[planeAlignerLeft]
84 0.812531 -811.448792 -0.314951 0.000000 -90.000000 -90.001900 811.449280
85 0.812531 -811.448792 -0.314951 0.000000 -90.000000 -90.001900 811.449280
86 0.812531 -811.448792 -0.314951 0.000000 -90.000000 -90.001900 811.449280
[L_Toe1_02]
84 413.761139 0.000477 0.000000 0.000203 -25.410625 -0.000182 413.761139
85 413.761139 0.000477 0.000000 0.000203 -25.410625 -0.000182 413.761139
86 413.761139 0.000477 0.000000 0.000203 -25.410625 -0.000182 413.761139
[L_Toe1_03]
84 464.317322 0.000358 -0.000089 0.004342 58.635971 0.004342 464.317322
85 464.317322 0.000358 -0.000089 0.004342 58.635971 0.004342 464.317322
86 464.317322 0.000358 -0.000089 0.004342 58.635971 0.004342 464.317322
[L_Toe2_02]
84 342.235809 -0.000477 0.000238 0.001191 -70.156403 0.001191 342.235809
85 342.235809 -0.000477 0.000238 0.001191 -70.156403 0.001191 342.235809
86 342.235809 -0.000477 0.000238 0.001191 -70.156403 0.001191 342.235809
[L_Toe2_03]
84 420.210846 -0.000715 0.000000 0.013353 79.915703 0.013353 420.210846
85 420.210846 -0.000715 0.000000 0.013353 79.915703 0.013353 420.210846
86 420.210846 -0.000715 0.000000 0.013353 79.915703 0.013353 420.210846
[L_Toe3_02]
84 329.270111 0.000954 0.000000 0.001176 -83.130447 0.001176 329.270111
85 329.270111 0.000954 0.000000 0.001176 -83.130447 0.001176 329.270111
86 329.270111 0.000954 0.000000 0.001176 -83.130447 0.001176 329.270111
[L_Toe3_03]
84 439.137451 -0.001907 0.000954 179.990875 65.540901 179.998047 439.137451
85 439.137451 -0.001907 0.000954 179.990875 65.540901 179.998047 439.137451
86 439.137451 -0.001907 0.000954 179.990875 65.540901 179.998047 439.137451
[planeLockWeightLeft]
84 -0.000954 0.000238 -0.000305 -0.011826 -0.004376 0.005620 0.001029
85 -0.000954 0.000238 -0.000305 -0.011826 -0.004376 0.005620 0.001029
86 -0.000954 0.000238 -0.000305 -0.011826 -0.004376 0.005620 0.001029
[R_Leg01]
84 761.455627 -0.001907 -0.000358 96.624046 -27.211922 78.346313 761.455688
85 761.455627 -0.001907 -0.000358 96.624451 -27.218092 78.345406 761.455688
86 761.455627 -0.001907 -0.000358 96.624863 -27.224279 78.344513 761.455688
[R_Leg02]
84 1441.140625 0.000000 -0.000238 -1.100662 -0.452843 -132.567474 1441.140625
85 1441.140625 0.000000 -0.000238 -1.100810 -0.452877 -132.579910 1441.140625
86 1441.140625 0.000000 -0.000238 -1.100958 -0.452910 -132.592361 1441.140625
[R_Leg03]
84 1686.963989 0.000954 0.001431 0.111609 -0.068712 140.981659 1686.963989
85 1686.963989 0.000954 0.001431 0.111839 -0.068831 140.989243 1686.963989
86 1686.963989 0.000954 0.001431 0.112068 -0.068949 140.996826 1686.963989
[R_Foot]
84 3041.560059 -30.531288 -11.204481 -15.296885 -25.041067 50.721043 3041.734131
85 3041.560059 -30.531288 -11.204481 -15.297206 -25.041008 50.726257 3041.734131
86 3041.560059 -30.531288 -11.204481 -15.297523 -25.040937 50.731461 3041.734131
[planeAlignerRight]
84 -0.635147 -812.270569 -0.364304 0.000000 -89.960434 -90.005180 812.270874
85 -0.635147 -812.270569 -0.364304 0.000000 -89.960434 -90.005180 812.270874
86 -0.635147 -812.270569 -0.364304 0.000000 -89.960434 -90.005180 812.270874
[R_Toe1_01]
84 -188.383347 -224.864899 21.052242 58.205601 26.476187 -166.994980 294.101532
85 -188.383347 -224.864899 21.052242 58.205631 26.476231 -166.994949 294.101532
86 -188.383347 -224.864899 21.052242 58.205635 26.476271 -166.994919 294.101532
[R_Toe2_01]
84 200.637817 -220.002121 -148.787384 -55.994591 39.712746 -29.524965 332.857574
85 200.637817 -220.002121 -148.787384 -55.994591 39.712746 -29.524965 332.857574
86 200.637817 -220.002121 -148.787384 -55.994591 39.712746 -29.524965 332.857574
[R_Toe3_01]
84 188.606735 -220.092957 191.126343 -53.843559 11.160452 -73.285622 347.192566
85 188.606735 -220.092957 191.126343 -53.843555 11.160478 -73.285568 347.192566
86 188.606735 -220.092957 191.126343 -53.843559 11.160510 -73.285530 347.192566
[planeLockWeightRight]
84 -0.000477 0.000000 0.000000 -0.011823 -0.004379 -0.000027 0.000477
85 -0.000477 0.000000 0.000000 -0.011823 -0.004379 -0.000027 0.000477
86 -0.000477 0.000000 0.000000 -0.011823 -0.004379 -0.000027 0.000477
[R_Toe1_02]
84 413.762085 0.000477 -0.000119 0.000006 -25.434675 -0.000005 413.762085
85 413.762085 0.000477 -0.000119 0.000006 -25.434675 -0.000005 413.762085
86 413.762085 0.000477 -0.000119 0.000006 -25.434675 -0.000005 413.762085
[R_Toe1_03]
84 464.317810 0.000000 0.001088 0.003184 46.738503 0.003184 464.317810
85 464.317810 0.000000 0.001088 0.003184 46.738441 0.003184 464.317810
86 464.317810 0.000000 0.001088 0.003184 46.738396 0.003184 464.317810
[R_Toe2_02]
84 342.234741 -0.000954 0.000238 0.001235 -53.660023 0.001235 342.234741
85 342.234741 -0.000954 0.000238 0.001235 -53.660015 0.001235 342.234741
86 342.234741 -0.000954 0.000238 0.001235 -53.660015 0.001235 342.234741
[R_Toe2_03]
84 420.210846 0.000715 -0.000268 -0.003602 51.671577 0.000100 420.210846
85 420.210846 0.000715 -0.000268 -0.003602 51.671577 0.000100 420.210846
86 420.210846 0.000715 -0.000268 -0.003602 51.671577 0.000100 420.210846
[R_Toe3_02]
84 329.270355 -0.000477 -0.000954 -0.002373 -66.445053 -0.002373 329.270355
85 329.270355 -0.000477 -0.000954 -0.002373 -66.445053 -0.002373 329.270355
86 329.270355 -0.000477 -0.000954 -0.002373 -66.445053 -0.002373 329.270355
[R_Toe3_03]
84 439.137939 0.000238 0.001431 0.005869 66.928558 0.005869 439.137939
85 439.137939 0.000238 0.001431 0.005869 66.928574 0.005869 439.137939
86 439.137939 0.000238 0.001431 0.005869 66.928558 0.005869 439.137939
[Rear_Leg02]
84 1162.777710 -0.029802 0.005960 -3.858767 7.265208 -97.444473 1162.777710
85 1162.777710 -0.029802 0.005960 -3.859515 7.264863 -97.449783 1162.777710
86 1162.777710 -0.029802 0.005960 -3.860263 7.264518 -97.455116 1162.777710
[Rear_Leg03]
84 607.192505 -0.013351 -0.073195 0.010389 -0.005313 70.523491 607.192505
85 607.192505 -0.013351 -0.073195 0.010389 -0.005313 70.524170 607.192505
86 607.192505 -0.013351 -0.073195 0.010389 -0.005313 70.524841 607.192505
[Rear_Leg04]
84 995.874512 -0.020504 -0.011921 -0.040864 -0.017295 71.481354 995.874573
85 995.874512 -0.020504 -0.011921 -0.040865 -0.017294 71.485413 995.874573
86 995.874512 -0.020504 -0.011921 -0.040865 -0.017292 71.489479 995.874573
[Rear_Foot]
84 3096.176270 -0.067472 -0.041425 94.942657 82.878120 -79.412361 3096.176270
85 3096.176270 -0.067472 -0.041425 94.958618 82.880013 -79.392975 3096.176270
86 3096.176270 -0.067472 -0.041425 94.974648 82.881943 -79.373459 3096.176270
[planeAlignerCenter]
84 0.350077 0.966311 -838.790894 0.000009 0.000003 -179.999985 838.791565
85 0.350077 0.966311 -838.790894 0.000009 0.000003 -179.999985 838.791565
86 0.350077 0.966311 -838.790894 0.000009 0.000003 -179.999985 838.791565
[Rear_Toe1_01]
84 0.653352 83.966492 -371.173737 5.367837 30.469658 103.560066 380.553192
85 0.653352 83.966492 -371.173737 5.367690 30.469755 103.559494 380.553192
86 0.653352 83.966492 -371.173737 5.367541 30.469856 103.558914 380.553192
[Rear_Toe2_01]
84 178.200760 -294.826019 -362.060547 -8.738733 22.955013 -73.356804 499.765686
85 178.200760 -294.826019 -362.060547 -8.738704 22.955059 -73.356308 499.765686
86 178.200760 -294.826019 -362.060547 -8.738676 22.955103 -73.355820 499.765686
[Rear_Toe3_01]
84 -153.359680 -308.780914 -362.060852 3.777088 19.494629 -119.566742 499.952881
85 -153.359680 -308.780914 -362.060852 3.777142 19.494602 -119.566681 499.952881
86 -153.359680 -308.780914 -362.060852 3.777197 19.494572 -119.566612 499.952881
[planeLockWeightCenter]
84 -0.000062 0.000238 0.000000 -0.011814 -0.004373 -0.000015 0.000246
85 -0.000062 0.000238 0.000000 -0.011814 -0.004373 -0.000015 0.000246
86 -0.000062 0.000238 0.000000 -0.011814 -0.004373 -0.000015 0.000246
[Rear_Toe1_02]
84 379.707825 0.194073 0.000477 -0.000342 -33.038860 0.006991 379.707855
85 379.707825 0.194073 0.000477 -0.000342 -33.039764 0.006991 379.707855
86 379.707825 0.194073 0.000477 -0.000342 -33.040661 0.006991 379.707855
[Rear_Toe1_03]
84 500.129700 0.165701 0.000119 -0.004071 60.582344 -0.000456 500.129761
85 500.129700 0.165701 0.000119 -0.004071 60.582523 -0.000456 500.129761
86 500.129700 0.165701 0.000119 -0.004071 60.582691 -0.000456 500.129761
[Rear_Toe2_02]
84 340.494507 0.000238 -0.000954 0.001179 -79.094398 0.001179 340.494507
85 340.494507 0.000238 -0.000954 0.001179 -79.094398 0.001179 340.494507
86 340.494507 0.000238 -0.000954 0.001179 -79.094398 0.001179 340.494507
[Rear_Toe2_03]
84 433.103577 0.000000 0.000238 0.031673 85.752869 0.031673 433.103546
85 433.103577 0.000000 0.000238 0.031673 85.752869 0.031673 433.103546
86 433.103577 0.000000 0.000238 0.031673 85.752869 0.031673 433.103546
[Rear_Toe3_02]
84 340.494141 -0.000358 -0.000477 -0.002471 -50.096046 -0.002471 340.494171
85 340.494141 -0.000358 -0.000477 -0.002471 -50.096054 -0.002471 340.494171
86 340.494141 -0.000358 -0.000477 -0.002471 -50.096046 -0.002471 340.494171
[Rear_Toe3_03]
84 433.103577 0.001431 -0.000238 0.000412 44.445911 -0.003381 433.103546
85 433.103577 0.001431 -0.000238 0.000412 44.445965 -0.003381 433.103546
86 433.103577 0.001431 -0.000238 0.000412 44.446014 -0.003381 433.103546
[Back_Bone]
84 1312.175781 -701.934692 0.000954 0.031206 0.001168 -85.664200 1488.125488
85 1312.175781 -701.934692 0.000954 0.031039 0.001174 -85.665077 1488.125488
86 1312.175781 -701.934692 0.000954 0.030873 0.001181 -85.665962 1488.125488
[Head]
84 1406.159424 809.709290 0.001431 0.001938 0.001325 21.282431 1622.625488
85 1406.159424 809.709290 0.001431 0.001938 0.001325 21.283775 1622.625488
86 1406.159424 809.709290 0.001431 0.001938 0.001325 21.285118 1622.625488
[Motor_Bone]
84 1158.364380 -417.834747 0.000477 -0.000105 0.000046 -105.985291 1231.419434
85 1158.364380 -417.834747 0.000477 -0.000105 0.000046 -105.985291 1231.419434
86 1158.364380 -417.834747 0.000477 -0.000105 0.000046 -105.985291 1231.419434
[Ping_Mechanism]
84 1249.284058 -447.764435 0.002653 0.000103 -0.000053 82.120995 1327.103394
85 1249.265015 -447.757172 0.003072 0.000103 -0.000053 82.120995 1327.083130
86 1249.246094 -447.749969 0.003492 0.000103 -0.000053 82.120995 1327.062866
[BN_LookIK]
84 193.241119 1380.371704 -0.002861 0.000000 89.965736 -31.038179 1393.832153
85 193.241119 1380.371704 -0.002861 0.000000 89.965736 -31.038179 1393.832153
86 193.241119 1380.371704 -0.002861 0.000000 89.965736 -31.038179 1393.832153
[bottomMouth]
84 -435.092926 615.759399 -0.000954 -0.000022 0.000016 73.527184 753.966492
85 -435.092926 615.759399 -0.000954 -0.000022 0.000016 73.527184 753.966492
86 -435.092926 615.759399 -0.000954 -0.000022 0.000016 73.527184 753.966492
[L_Mouth01]
84 554.440979 7.658243 838.222046 150.204178 23.759130 109.605339 1005.027161
85 554.440979 7.658243 838.222046 150.204178 23.759130 109.605339 1005.027161
86 554.440979 7.658243 838.222046 150.204178 23.759130 109.605339 1005.027161
[L_mouthFront]
84 551.629089 934.514771 339.150421 0.000081 2.804060 79.119301 1136.941284
85 551.629089 934.514771 339.150421 0.000081 2.804060 79.119301 1136.941284
86 551.629089 934.514771 339.150421 0.000081 2.804060 79.119301 1136.941284
[mouthGun]
84 55.332661 1627.420898 0.000000 0.000023 0.000009 -11.038128 1628.361328
85 55.332661 1627.420898 0.000000 0.000023 0.000009 -11.038128 1628.361328
86 55.332661 1627.420898 0.000000 0.000023 0.000009 -11.038128 1628.361328
[R_Mouth01]
84 554.442383 7.659197 -838.223938 29.795891 -23.759109 109.605331 1005.029541
85 554.442383 7.659197 -838.223938 29.795891 -23.759109 109.605331 1005.029541
86 554.442383 7.659197 -838.223938 29.795891 -23.759109 109.605331 1005.029541
[R_mouthFront]
84 551.629089 934.514282 -339.151367 0.000029 -2.803930 79.119133 1136.941162
85 551.629089 934.514282 -339.151367 0.000029 -2.803930 79.119133 1136.941162
86 551.629089 934.514282 -339.151367 0.000029 -2.803930 79.119133 1136.941162
[TopMouth]
84 461.269867 -56.106091 -0.008583 -0.000059 -0.000268 92.025169 464.669525
85 461.269867 -56.106091 -0.008583 -0.000059 -0.000268 92.025169 464.669525
86 461.269867 -56.106091 -0.008583 -0.000059 -0.000268 92.025169 464.669525
[weapon_bone]
84 -987.239868 1448.372803 0.001431 0.000000 89.965736 -31.038221 1752.833740
85 -987.239868 1448.372803 0.001431 0.000000 89.965736 -31.038221 1752.833740
86 -987.239868 1448.372803 0.001431 0.000000 89.965736 -31.038221 1752.833740
